<svg viewBox="0 -55.00000000000001 634.5663265306122 100" xmlns="http://www.w3.org/2000/svg" xmlns:xlink="http://www.w3.org/1999/xlink" version="1.1" class="jsx-2263963463 artboard-inner" style="width: 340px; height: 53.5799px; max-height: 100%;"><g transform="translate(-5.10204081632653 43.8520408163265) scale(1.7715419501133782)" fill="#FFFFFF"><g id="line1"><path d="M40.464-28.296C42.288-30.936 43.200-33.840 43.200-37.008C43.200-41.376 41.640-45.120 38.520-48.240C35.544-51.312 31.848-52.848 27.432-52.848L9.288-52.848C6.216-52.848 4.344-52.200 3.672-50.904C3.288-50.184 3.060-49.560 2.988-49.032C2.916-48.504 2.880-47.664 2.880-46.512L2.880-6.552C2.880-4.872 3.024-3.624 3.312-2.808C3.888-0.984 5.856-0.072 9.216-0.072L28.152-0.072C32.712-0.072 36.588-1.692 39.780-4.932C42.972-8.172 44.616-12.192 44.712-16.992C44.712-21.168 43.296-24.936 40.464-28.296ZM31.968-17.712C31.968-14.448 30.456-12.816 27.432-12.816L15.624-12.816L15.624-40.104L25.704-40.104C27.288-40.104 28.476-39.864 29.268-39.384C30.060-38.904 30.456-38.064 30.456-36.864C30.456-35.664 30.384-34.800 30.240-34.272C29.856-33.264 28.704-32.760 26.784-32.760C24.720-32.760 23.244-32.424 22.356-31.752C21.468-31.080 21.024-29.700 21.024-27.612C21.024-25.524 21.456-24.144 22.320-23.472C23.184-22.800 24.480-22.464 26.208-22.464C27.936-22.464 29.280-22.272 30.240-21.888C30.864-21.600 31.308-21.120 31.572-20.448C31.836-19.776 31.968-18.864 31.968-17.712Z"></path><path d="M49.392-49.464L49.392-15.192C49.392-10.056 50.064-6.312 51.408-3.960C52.512-1.992 54.912-0.768 58.608-0.288C63.312 0.288 66.288 0.144 67.536-0.720C68.496-1.392 68.976-3.240 68.976-6.264C68.976-9.048 68.496-10.752 67.536-11.376C67.056-11.712 66.648-11.916 66.312-11.988C65.976-12.060 65.316-12.096 64.332-12.096C63.348-12.096 62.712-12.324 62.424-12.780C62.136-13.236 61.992-14.328 61.992-16.056L61.992-49.392C61.992-50.496 61.956-51.336 61.884-51.912C61.812-52.488 61.584-53.136 61.200-53.856C60.480-55.152 58.656-55.800 55.728-55.800C52.656-55.800 50.784-55.152 50.112-53.856C49.776-53.136 49.572-52.500 49.500-51.948C49.428-51.396 49.392-50.568 49.392-49.464Z"></path><path d="M77.904-33.192C73.872-29.448 71.856-24.696 71.856-18.936C71.856-15.096 72.876-11.652 74.916-8.604C76.956-5.556 79.464-3.252 82.440-1.692C85.416-0.132 88.488 0.648 91.656 0.648C94.824 0.648 97.884-0.084 100.836-1.548C103.788-3.012 106.296-5.292 108.360-8.388C110.424-11.484 111.456-15.024 111.456-19.008C111.456-24.768 109.464-29.508 105.480-33.228C101.496-36.948 96.912-38.808 91.728-38.808C86.544-38.808 81.936-36.936 77.904-33.192ZM91.584-12.024C90.000-12.024 88.440-12.612 86.904-13.788C85.368-14.964 84.600-16.716 84.600-19.044C84.600-21.372 85.344-23.136 86.832-24.336C88.320-25.536 89.928-26.136 91.656-26.136C93.384-26.136 94.992-25.560 96.480-24.408C97.968-23.256 98.712-21.504 98.712-19.152C98.712-16.800 97.920-15.024 96.336-13.824C94.752-12.624 93.168-12.024 91.584-12.024Z"></path><path d="M130.032-14.220C128.688-15.348 128.016-16.932 128.016-18.972C128.016-21.012 128.712-22.608 130.104-23.760C131.496-24.912 132.996-25.488 134.604-25.488C136.212-25.488 137.448-25.080 138.312-24.264C139.992-23.208 141.288-22.680 142.200-22.680C143.784-22.680 145.440-24.000 147.168-26.640C148.176-28.176 148.680-29.556 148.680-30.780C148.680-32.004 148.056-33.096 146.808-34.056C146.328-34.392 145.656-34.848 144.792-35.424L143.640-36.144C142.824-36.624 141.552-37.116 139.824-37.620C138.096-38.124 136.320-38.376 134.496-38.376C129.984-38.376 125.736-36.792 121.752-33.624C119.784-32.088 118.176-30.060 116.928-27.540C115.680-25.020 115.056-22.212 115.056-19.116C115.056-16.020 115.680-13.188 116.928-10.620C118.176-8.052 119.784-6.000 121.752-4.464C125.880-1.248 130.176 0.360 134.640 0.360C138.624 0.360 141.984-0.600 144.720-2.520C147.360-4.104 148.680-5.808 148.680-7.632C148.680-8.736 148.128-9.984 147.024-11.376C144.960-13.920 143.208-15.192 141.768-15.192C140.952-15.192 139.884-14.748 138.564-13.860C137.244-12.972 135.828-12.528 134.316-12.528C132.804-12.528 131.376-13.092 130.032-14.220Z"></path><path d="M175.680-19.008L182.808-25.056C184.584-26.544 185.472-27.840 185.472-28.944C185.472-30.048 184.692-31.572 183.132-33.516C181.572-35.460 180.192-36.432 178.992-36.432C177.792-36.432 176.352-35.784 174.672-34.488L173.808-33.912C172.944-33.192 171.636-31.968 169.884-30.240C168.132-28.512 166.824-27.288 165.960-26.568L165.960-49.392C165.960-50.304 165.936-50.976 165.888-51.408C165.840-52.848 165.408-53.904 164.592-54.576C163.632-55.392 162.000-55.800 159.696-55.800C156.624-55.800 154.752-55.152 154.080-53.856C153.744-53.136 153.540-52.500 153.468-51.948C153.396-51.396 153.360-50.568 153.360-49.464L153.360-6.336C153.360-5.232 153.396-4.404 153.468-3.852C153.540-3.300 153.744-2.664 154.080-1.944C154.752-0.648 156.600 0 159.624 0C162.696 0 164.544-0.624 165.168-1.872C165.552-2.592 165.780-3.228 165.852-3.780C165.924-4.332 165.960-5.160 165.960-6.264L165.960-11.808C167.160-10.848 168.912-9.228 171.216-6.948C173.520-4.668 175.224-3.072 176.328-2.160L177.048-1.656C178.920-0.264 180.384 0.432 181.440 0.432C182.688 0.432 184.128-0.576 185.760-2.592C187.248-4.560 187.992-6.120 187.992-7.272C187.992-7.752 187.836-8.256 187.524-8.784C187.212-9.312 186.456-10.080 185.256-11.088Z"></path><path d="M213.984-25.200C215.088-25.200 215.916-25.236 216.468-25.308C217.020-25.380 217.656-25.584 218.376-25.920C219.672-26.592 220.320-28.440 220.320-31.464C220.320-34.536 219.696-36.384 218.448-37.008C217.728-37.392 217.092-37.620 216.540-37.692C215.988-37.764 215.172-37.800 214.092-37.800C213.012-37.800 211.416-37.704 209.304-37.512L209.304-44.568C209.304-46.248 209.184-47.472 208.944-48.240C208.320-50.016 206.376-50.904 203.112-50.904C200.040-50.904 198.192-50.304 197.568-49.104C197.184-48.480 196.956-47.904 196.884-47.376C196.812-46.848 196.776-46.032 196.776-44.928L196.776-37.512L194.400-37.800C193.248-37.800 192.288-37.488 191.520-36.864C191.088-36.480 190.752-35.844 190.512-34.956C190.272-34.068 190.152-32.640 190.152-30.672C190.152-28.704 190.500-27.312 191.196-26.496C191.892-25.680 192.768-25.272 193.824-25.272C194.880-25.272 195.864-25.344 196.776-25.488L196.776-14.832C196.776-9.456 198.072-5.640 200.664-3.384C203.256-1.128 207.048 0 212.040 0C213.096 0 213.900-0.036 214.452-0.108C215.004-0.180 215.640-0.384 216.360-0.720C217.704-1.392 218.376-3.240 218.376-6.264C218.376-8.856 217.824-10.464 216.720-11.088C216.048-11.472 215.412-11.700 214.812-11.772C214.212-11.844 213.348-11.880 212.220-11.880C211.092-11.880 210.324-12.168 209.916-12.744C209.508-13.320 209.304-14.256 209.304-15.552L209.304-25.488Z"></path><path d="M224.280-31.608L224.280-6.336C224.280-5.184 224.316-4.344 224.388-3.816C224.460-3.288 224.664-2.664 225.000-1.944C225.672-0.648 227.520 0 230.544 0C233.616 0 235.464-0.624 236.088-1.872C236.472-2.592 236.700-3.228 236.772-3.780C236.844-4.332 236.880-5.160 236.880-6.264L236.880-31.464C236.880-32.376 236.856-33.072 236.808-33.552C236.760-34.944 236.328-35.976 235.512-36.648C234.552-37.464 232.920-37.872 230.616-37.872C227.544-37.872 225.672-37.248 225.000-36.000C224.664-35.280 224.460-34.644 224.388-34.092C224.316-33.540 224.280-32.712 224.280-31.608ZM234.216-43.488C235.128-43.776 235.764-44.268 236.124-44.964C236.484-45.660 236.700-46.284 236.772-46.836C236.844-47.388 236.880-48.216 236.880-49.320C236.880-50.424 236.844-51.252 236.772-51.804C236.700-52.356 236.472-52.992 236.088-53.712C235.464-55.008 233.640-55.656 230.616-55.656C227.544-55.656 225.672-55.008 225.000-53.712C224.664-53.040 224.460-52.428 224.388-51.876C224.316-51.324 224.280-50.496 224.280-49.392C224.280-48.288 224.316-47.460 224.388-46.908C224.460-46.356 224.676-45.720 225.036-45.000C225.396-44.280 226.032-43.776 226.944-43.488C227.856-43.200 229.068-43.056 230.580-43.056C232.092-43.056 233.304-43.200 234.216-43.488Z"></path><path d="M242.928-3.384C247.200-0.696 251.652 0.648 256.284 0.648C260.916 0.648 264.768-0.096 267.840-1.584C269.520-2.448 270.828-3.756 271.764-5.508C272.700-7.260 273.168-9.384 273.168-11.880C273.168-14.376 272.700-16.452 271.764-18.108C270.828-19.764 269.664-20.928 268.272-21.600C265.296-23.088 262.224-24.000 259.056-24.336C255.792-24.768 254.160-25.704 254.160-27.144C254.160-28.200 255.576-28.728 258.408-28.728C260.232-28.728 261.924-28.368 263.484-27.648C265.044-26.928 266.112-26.568 266.688-26.568C267.792-26.568 268.872-27.408 269.928-29.088C270.984-30.768 271.512-32.184 271.512-33.336C271.512-34.488 270.672-35.448 268.992-36.216C265.392-37.848 261.888-38.664 258.480-38.664C248.064-38.664 242.856-34.872 242.856-27.288C242.856-24.744 243.312-22.548 244.224-20.700C245.136-18.852 246.288-17.496 247.680-16.632C250.656-14.808 253.656-13.680 256.680-13.248C259.896-12.816 261.504-12.144 261.504-11.232C261.504-10.080 260.040-9.504 257.112-9.504C255.480-9.504 253.656-10.092 251.640-11.268C249.624-12.444 248.028-13.032 246.852-13.032C245.676-13.032 244.824-12.624 244.296-11.808C242.472-9.264 241.560-7.368 241.560-6.120C241.560-4.872 242.016-3.960 242.928-3.384Z"></path><path d="M299.880-25.200C300.984-25.200 301.812-25.236 302.364-25.308C302.916-25.380 303.552-25.584 304.272-25.920C305.568-26.592 306.216-28.440 306.216-31.464C306.216-34.536 305.592-36.384 304.344-37.008C303.624-37.392 302.988-37.620 302.436-37.692C301.884-37.764 301.068-37.800 299.988-37.800C298.908-37.800 297.312-37.704 295.200-37.512L295.200-44.568C295.200-46.248 295.080-47.472 294.840-48.240C294.216-50.016 292.272-50.904 289.008-50.904C285.936-50.904 284.088-50.304 283.464-49.104C283.080-48.480 282.852-47.904 282.780-47.376C282.708-46.848 282.672-46.032 282.672-44.928L282.672-37.512L280.296-37.800C279.144-37.800 278.184-37.488 277.416-36.864C276.984-36.480 276.648-35.844 276.408-34.956C276.168-34.068 276.048-32.640 276.048-30.672C276.048-28.704 276.396-27.312 277.092-26.496C277.788-25.680 278.664-25.272 279.720-25.272C280.776-25.272 281.760-25.344 282.672-25.488L282.672-14.832C282.672-9.456 283.968-5.640 286.560-3.384C289.152-1.128 292.944 0 297.936 0C298.992 0 299.796-0.036 300.348-0.108C300.900-0.180 301.536-0.384 302.256-0.720C303.600-1.392 304.272-3.240 304.272-6.264C304.272-8.856 303.720-10.464 302.616-11.088C301.944-11.472 301.308-11.700 300.708-11.772C300.108-11.844 299.244-11.880 298.116-11.880C296.988-11.880 296.220-12.168 295.812-12.744C295.404-13.320 295.200-14.256 295.200-15.552L295.200-25.488Z"></path><path d="M310.176-31.608L310.176-6.336C310.176-5.184 310.212-4.344 310.284-3.816C310.356-3.288 310.560-2.664 310.896-1.944C311.568-0.648 313.416 0 316.440 0C319.512 0 321.360-0.624 321.984-1.872C322.368-2.592 322.596-3.228 322.668-3.780C322.740-4.332 322.776-5.160 322.776-6.264L322.776-31.464C322.776-32.376 322.752-33.072 322.704-33.552C322.656-34.944 322.224-35.976 321.408-36.648C320.448-37.464 318.816-37.872 316.512-37.872C313.440-37.872 311.568-37.248 310.896-36.000C310.560-35.280 310.356-34.644 310.284-34.092C310.212-33.540 310.176-32.712 310.176-31.608ZM320.112-43.488C321.024-43.776 321.660-44.268 322.020-44.964C322.380-45.660 322.596-46.284 322.668-46.836C322.740-47.388 322.776-48.216 322.776-49.320C322.776-50.424 322.740-51.252 322.668-51.804C322.596-52.356 322.368-52.992 321.984-53.712C321.360-55.008 319.536-55.656 316.512-55.656C313.440-55.656 311.568-55.008 310.896-53.712C310.560-53.040 310.356-52.428 310.284-51.876C310.212-51.324 310.176-50.496 310.176-49.392C310.176-48.288 310.212-47.460 310.284-46.908C310.356-46.356 310.572-45.720 310.932-45.000C311.292-44.280 311.928-43.776 312.840-43.488C313.752-43.200 314.964-43.056 316.476-43.056C317.988-43.056 319.200-43.200 320.112-43.488Z"></path><path d="M342.432-14.220C341.088-15.348 340.416-16.932 340.416-18.972C340.416-21.012 341.112-22.608 342.504-23.760C343.896-24.912 345.396-25.488 347.004-25.488C348.612-25.488 349.848-25.080 350.712-24.264C352.392-23.208 353.688-22.680 354.600-22.680C356.184-22.680 357.840-24.000 359.568-26.640C360.576-28.176 361.080-29.556 361.080-30.780C361.080-32.004 360.456-33.096 359.208-34.056C358.728-34.392 358.056-34.848 357.192-35.424L356.040-36.144C355.224-36.624 353.952-37.116 352.224-37.620C350.496-38.124 348.720-38.376 346.896-38.376C342.384-38.376 338.136-36.792 334.152-33.624C332.184-32.088 330.576-30.060 329.328-27.540C328.080-25.020 327.456-22.212 327.456-19.116C327.456-16.020 328.080-13.188 329.328-10.620C330.576-8.052 332.184-6.000 334.152-4.464C338.280-1.248 342.576 0.360 347.040 0.360C351.024 0.360 354.384-0.600 357.120-2.520C359.760-4.104 361.080-5.808 361.080-7.632C361.080-8.736 360.528-9.984 359.424-11.376C357.360-13.920 355.608-15.192 354.168-15.192C353.352-15.192 352.284-14.748 350.964-13.860C349.644-12.972 348.228-12.528 346.716-12.528C345.204-12.528 343.776-13.092 342.432-14.220Z"></path></g></g></svg>